<svg width="48" height="48" viewBox="0 0 48 48" fill="none" xmlns="http://www.w3.org/2000/svg">
<rect width="48" height="48" rx="24" fill="#B1EF00"/>
<g clip-path="url(#clip0_10_156)">
<path d="M34.5 24C34.507 26.3417 33.731 28.6185 32.2954 30.4685C30.8599 32.3186 28.847 33.6356 26.577 34.2103C24.3069 34.785 21.9099 34.5844 19.7669 33.6403C17.6239 32.6962 15.8581 31.0629 14.75 29C14.0813 27.7625 13.6729 26.4012 13.55 25C13.55 24.69 13.55 24.39 13.55 24.08C13.5394 22.6986 13.8016 21.3287 14.3214 20.0488C14.8413 18.7689 15.6085 17.6041 16.5793 16.6213C17.5501 15.6385 18.7052 14.8568 19.9786 14.3212C21.252 13.7856 22.6186 13.5065 24 13.5C24.31 13.5 24.61 13.5 24.92 13.5C26.3212 13.6229 27.6825 14.0313 28.92 14.7C30.6113 15.5921 32.0257 16.9307 33.0095 18.5703C33.9933 20.2099 34.5088 22.0879 34.5 24Z" stroke="#022F36" stroke-width="1.5" stroke-miterlimit="10"/>
<path d="M29 14.74C29.8281 16.2755 30.2547 17.9955 30.24 19.74C30.2361 21.1192 29.9602 22.4842 29.4281 23.7567C28.8961 25.0292 28.1183 26.1843 27.1393 27.1559C26.1603 28.1274 24.9993 28.8964 23.7228 29.4187C22.4463 29.9411 21.0792 30.2066 19.7 30.2C17.9758 30.2186 16.2743 29.8061 14.75 29" stroke="#022F36" stroke-width="1.5" stroke-miterlimit="10"/>
<path d="M24.92 13.54C24.92 13.84 24.92 14.15 24.92 14.45C24.9279 15.8309 24.6631 17.1998 24.1407 18.4781C23.6183 19.7565 22.8487 20.9191 21.8759 21.8993C20.9032 22.8795 19.7465 23.6579 18.4721 24.19C17.1978 24.7221 15.831 24.9974 14.45 25C14.15 25 13.84 25 13.54 25" stroke="#022F36" stroke-width="1.5" stroke-miterlimit="10"/>
</g>
<defs>
<clipPath id="clip0_10_156">
<rect width="24" height="24" fill="white" transform="translate(12 12)"/>
</clipPath>
</defs>
</svg>
